<svg xmlns="http://www.w3.org/2000/svg" width="256" height="256"><path fill-opacity=".016" d="M0 128.004v128.004l128.25-.254 128.25-.254.254-127.75L257.008 0H0v128.004m.485.496c0 70.4.119 99.053.265 63.672.146-35.38.146-92.98 0-128C.604 29.153.485 58.1.485 128.5" fill="#0097a7" fill-rule="evenodd"/><path fill-opacity=".143" d="M18.5 2.882C11.195 6.389 5.957 11.689 2.569 19L.02 24.5v207l2.549 5.5c3.388 7.311 8.626 12.611 15.931 16.118l6 2.88 103.5-.009 103.5-.009 5.5-2.549c7.486-3.469 12.558-8.616 16.602-16.846l3.398-6.916V126.168c0-56.926-.286-103.216-.635-102.866-.349.349-1.871-1.939-3.381-5.084-3.38-7.037-8.754-12.299-15.984-15.649L231.5.02 128 .011 24.5.002l-6 2.88M.482 128c0 57.475.12 80.987.268 52.25.147-28.738.147-75.763 0-104.5C.602 47.012.482 70.525.482 128M125.61 69.533c-2.013 2.013-2.02 2.914-.039 4.896 1.252 1.251 3.98 1.571 13.394 1.571 23.708 0 43.214 3.232 56.336 9.335 14.339 6.668 23.71 17.27 23.69 26.8-.02 9.229-8.745 19.191-23.17 26.455-3.724 1.875-6.969 3.41-7.212 3.41-.242 0-.591-7.537-.775-16.75-.399-20.027-1.479-23.264-9.021-27.051-4.523-2.27-4.7-2.28-13.448-.778-23.986 4.119-51.206 4.5-69.865.977-12.656-2.39-16.392-2.328-20.127.334-5.829 4.155-6.83 7.838-7.205 26.518-.185 9.213-.535 16.75-.777 16.75-.243 0-3.488-1.535-7.212-3.41-14.529-7.316-23.16-17.226-23.16-26.59 0-9.371 10.597-21.436 22.884-26.055 8.19-3.079 18.388-3.394 45.908-1.419 26.947 1.934 28.658 1.755 27.987-2.938-.332-2.327-.535-2.356-30.798-4.502-37.717-2.674-48.577-.344-62.526 13.414-8.108 7.997-9.974 12.02-9.974 21.5 0 9.511 1.858 13.487 10.131 21.678 4.707 4.66 8.836 7.469 16.805 11.43L68 150.36v6.576c0 11.758 2.405 16.177 11.252 20.681 7.121 3.624 26.823 8.355 38.722 9.297 19.093 1.512 42.755-2.024 57.026-8.523 10.322-4.7 12.984-9.097 12.994-21.461l.006-6.57 10.564-5.252c7.969-3.961 12.098-6.77 16.805-11.43 8.273-8.191 10.131-12.167 10.131-21.678 0-9.468-1.861-13.49-9.951-21.5-12.368-12.246-32.436-19.347-59.167-20.936-28.73-1.708-29.094-1.709-30.772-.031M122 130v9h-18v11h18v18h12v-18h18v-11h-18v-18h-12v9" fill="#0097a7" fill-rule="evenodd"/><path fill-opacity=".33" d="M22.005 1.668C12.064 5.146 4.814 12.554 1.557 22.561.115 26.991-.023 38.065.224 130L.5 232.5l2.476 5c3.157 6.375 9.149 12.367 15.524 15.524l5 2.476 102.5.276c91.935.247 103.009.109 107.439-1.333 9.851-3.206 17.472-10.576 20.624-19.943.74-2.2 1.703-4.427 2.141-4.95.966-1.152 1.081-205.168.115-204.203-.374.375-1.328-1.235-2.12-3.578-3.213-9.506-10.63-16.8-20.484-20.145-4.295-1.458-15.139-1.619-106-1.576-89.39.042-101.74.231-105.71 1.62M.481 128c0 56.375.121 79.437.269 51.25.147-28.188.147-74.313 0-102.5C.602 48.562.481 71.625.481 128M125.2 69.2c-1.559 1.559-1.534 4.292.05 5.541.688.542 8.675 1.278 17.75 1.634 26.665 1.048 39.423 3.425 52.985 9.874 10.907 5.187 19.986 13.869 21.96 21.001 1.085 3.921 1.086 5.579.004 9.5-1.859 6.734-11.866 16.495-21.949 21.408l-7.5 3.655-.5-17.157c-.559-19.192-1.402-21.963-8.054-26.498-3.822-2.606-3.675-2.608-24.946.369-15.575 2.18-42.335 2.168-56-.025-18.323-2.94-19.1-2.952-22.946-.338-6.65 4.521-7.495 7.298-8.054 26.492l-.5 17.157-7.5-3.655c-10.083-4.913-20.09-14.674-21.949-21.408-2.065-7.482-.134-12.796 7.384-20.319 11.322-11.329 22.047-14.227 45.928-12.412 7.225.549 19.498 1.286 27.273 1.638 13.911.629 14.154.604 15.329-1.592.986-1.843.892-2.565-.54-4.148-1.42-1.569-3.116-1.917-9.33-1.918-4.177 0-12.545-.481-18.595-1.068-6.05-.587-17.075-1.077-24.5-1.09-20.375-.034-28.483 2.797-40.357 14.089-7.952 7.562-11 13.677-11 22.07 0 5.026.587 7.641 2.586 11.534 4.803 9.351 15.27 17.98 29.138 24.021l6.452 2.811.341 9.246c.274 7.445.746 9.796 2.422 12.067 4.472 6.061 19.962 11.774 40.421 14.908 29.351 4.497 70.42-4.781 75.554-17.069.839-2.009 1.443-6.721 1.443-11.263v-7.81l6.543-2.85c32.096-13.983 41.236-37.813 21.807-56.859-9.812-9.618-21.317-15.275-37.875-18.623-18.154-3.672-50.735-5.453-53.275-2.913M123 130v9h-18v11h18v18h10v-18h18v-11h-18v-18h-10v9" fill="#0097a7" fill-rule="evenodd"/><path fill-opacity=".188" d="M24.081 1.577C17.105 3.468 13.013 6.042 8.083 11.643.045 20.775.5 13.789.5 128c0 116.901-.714 107.946 9.42 118.08s1.179 9.42 118.08 9.42c116.954 0 107.937.723 118.129-9.469 4.537-4.537 5.987-6.817 7.368-11.59.946-3.267 2.121-6.722 2.612-7.677 1.28-2.495 1.172-199.056-.109-198.264-.55.34-1-.228-1-1.263 0-8.409-10.021-21.16-19.5-24.811C230.696.576 226.556.492 130 .304 44.309.137 28.702.324 24.081 1.577M.481 128c0 54.725.121 77.112.269 49.75.148-27.363.148-72.138 0-99.5C.602 50.887.481 73.275.481 128m124.681-58.696c-.723.872-1.168 2.623-.989 3.891.314 2.213.805 2.334 12.327 3.025 35.816 2.149 46.502 4.067 60.216 10.806 9.089 4.466 17.501 11.856 19.824 17.416 3.448 8.253.666 17.566-7.357 24.628-4.64 4.085-14.671 10.121-18.933 11.393l-2.25.672-.005-16.818c-.005-15.781-.147-17.051-2.308-20.621-2.981-4.924-7.25-7.681-11.907-7.689-2.046-.004-8.571.771-14.5 1.722-15.533 2.492-51.006 2.418-64.78-.135-5.5-1.02-11.249-1.825-12.775-1.79-4.054.093-8.984 3.533-11.513 8.033-2.037 3.624-2.212 5.255-2.212 20.617v16.681l-2.25-.672c-4.262-1.272-14.293-7.308-18.933-11.393-15.102-13.293-10.428-30.608 11.16-41.348l6.477-3.222 16.523.003c9.088.002 24.127.574 33.421 1.271 15.495 1.163 17.051 1.13 18.75-.408 2.137-1.934 2.411-4.695.602-6.074-1.896-1.445-53.549-4.677-62.207-3.892-4.096.371-9.985 1.548-13.087 2.615C48.068 81.589 36.453 91.454 31.394 101c-2.79 5.266-2.57 17.133.422 22.795 4.875 9.222 14.648 17.315 28.812 23.86L68 151.061v8.966c0 8.848.047 9.019 3.508 12.851 4.238 4.69 10.246 7.389 25.472 11.442 11.031 2.936 12.369 3.066 31.52 3.064 18.402-.002 20.759-.21 29.5-2.592 14.539-3.964 21.005-6.724 25.443-10.863l4.057-3.783.347-9.587.347-9.588 7.275-3.361c14.065-6.499 23.852-14.616 28.715-23.815 1.767-3.344 2.275-5.956 2.293-11.795.02-6.473-.385-8.235-2.951-12.87-5.453-9.846-18.132-19.197-32.765-24.165-12.243-4.157-25.081-6.028-45.772-6.671-16.14-.502-18.679-.372-19.827 1.01m-2.374 60.946l-.288 9.25-8.75.289-8.75.289V149h18v18h10v-18h18v-8.922l-8.75-.289-8.75-.289-.288-9.25-.287-9.25h-9.85l-.287 9.25" fill="#0097a7" fill-rule="evenodd"/></svg>